<svg width="43" height="47" viewBox="0 0 43 47" fill="none" xmlns="http://www.w3.org/2000/svg">
<path d="M28.4837 10.2374L21.0078 10.3072L27.3994 6.99209L25.8871 1.85857L30.1305 4.92162L34.3983 1.81592L33.2774 5.99563L40.313 6.76333L32.992 9.47743L30.0734 14.324L28.4837 10.2374Z" fill="#FFE36C"/>
<path d="M33.0246 3.79329L32.7149 4.94096L32.2542 6.66636L34.113 6.86797L36.9419 7.17428L32.9635 8.65153L32.4254 8.84927L32.1401 9.32617L30.2324 12.4939L29.4498 10.4777L29.0503 9.45025L27.9008 9.46576L24.2688 9.50065L27.2201 7.96912L28.3614 7.3759L28.0109 6.18557L27.3301 3.87471L29.14 5.18136L30.1305 5.89478L31.117 5.17748L33.0246 3.79329ZM30.1264 3.9445L24.9618 0.218432C24.7947 0.0982363 24.5623 0.24945 24.6194 0.439437L26.4374 6.6082L18.5132 10.7181C18.3134 10.8228 18.3909 11.1097 18.6192 11.1058L27.9171 11.0167L29.7514 15.7353C29.8166 15.902 30.0531 15.9176 30.1468 15.7663L33.5586 10.0978L42.8607 6.64697C43.0726 6.56942 43.0319 6.27087 42.8077 6.24761L34.3005 5.32482L35.6131 0.420051C35.6661 0.230064 35.4337 0.0827271 35.2707 0.202923L30.1264 3.9445Z" fill="#FF8F00"/>
<path d="M33.9708 15.7817C33.4531 15.7119 30.8728 18.1585 29.01 16.6231L29.0059 16.627C27.9139 15.7838 26.7208 15.0667 25.4514 14.4906C16.5855 10.4698 5.96686 14.0447 1.73571 22.4817C-2.49137 30.9148 1.26694 41.0151 10.1369 45.0397C19.0027 49.0605 29.6214 45.4856 33.8525 37.0486C35.2262 34.3113 35.7562 31.3994 35.5401 28.5768C35.5238 28.379 35.4871 27.9409 35.589 27.6152C36.2861 25.3896 38.8215 24.2807 38.7685 24.176C38.7155 24.0675 34.4925 15.8515 33.9708 15.7817Z" fill="#FAFAFA"/>
<path d="M38.8699 24.1219C40.0074 23.4991 39.8071 21.1392 38.4224 18.8509C37.0377 16.5625 34.9931 15.2123 33.8556 15.8351C32.718 16.4578 32.9184 18.8177 34.3031 21.1061C35.6877 23.3944 37.7324 24.7446 38.8699 24.1219Z" fill="#757575"/>
<path d="M37.8507 21.1543C38.2971 20.9091 38.3379 20.1812 37.9416 19.5284C37.5454 18.8757 36.8623 18.5452 36.4158 18.7904C35.9694 19.0356 35.9286 19.7636 36.3248 20.4163C36.7211 21.0691 37.4042 21.3995 37.8507 21.1543Z" fill="#FAFAFA"/>
<path opacity="0.9" d="M17.3845 18.9923C18.5014 22.0089 16.8668 23.8079 14.7513 24.9595C13.7404 25.5101 12.5664 25.7504 11.5433 26.2816C9.55404 27.313 8.34747 29.302 6.61506 30.6862C6.18298 31.0313 5.68975 31.3492 5.12723 31.4074C4.3772 31.4849 3.64347 31.0662 3.19508 30.4885C2.75077 29.9069 0.928681 24.3934 7.58113 18.7519C10.5527 16.2317 16.1617 15.685 17.3845 18.9923Z" fill="#757575"/>
<path d="M12.4766 13.6222C13.9807 13.6687 17.0542 13.6881 20.943 15.142C22.2514 15.6306 23.3561 16.313 24.5423 17.0109C25.5002 17.5731 26.5886 18.0423 27.7095 17.9414C28.1049 17.9066 28.5411 17.7592 28.696 17.4103C28.7897 17.1931 28.7816 16.9721 28.7001 16.755C28.6022 16.4991 28.268 16.1424 27.7544 15.743C27.0212 15.2727 26.2528 14.8541 25.4554 14.4907C21.2324 12.5753 16.614 12.3853 12.4766 13.6222Z" fill="url(#paint0_linear_318_278)"/>
<path d="M37.0443 17.0808C37.024 17.0614 37.0036 17.0381 36.9832 17.0187C36.9791 17.0149 36.9791 17.011 36.9751 17.011C36.8813 16.9218 36.7875 16.8365 36.6938 16.7512C36.6816 16.7396 36.6653 16.7279 36.653 16.7124C35.6217 15.8245 34.566 15.4484 33.8567 15.8323C32.7194 16.4527 32.9192 18.8139 34.3051 21.1015C34.5885 21.5691 34.9116 22.0139 35.2712 22.4314C35.2304 22.319 33.7059 17.9648 34.6557 16.7977C35.4668 15.8129 36.9017 16.9645 37.0443 17.0808Z" fill="url(#paint1_linear_318_278)"/>
<path d="M31.3499 27.5067C30.3635 26.8902 29.3974 26.0527 28.7982 23.9474C28.7207 23.6799 28.4599 22.3499 29.214 22.1367C29.8662 21.9506 30.3512 22.9703 30.9138 23.866C31.5252 24.8469 32.5157 25.696 33.5796 26.2505C33.8894 26.4095 35.3284 27.0259 34.3827 27.8867C33.759 28.4489 31.9288 27.8712 31.3499 27.5067Z" fill="#FAFAFA"/>
<path d="M36.5227 19.3295C36.5634 19.314 40.7008 17.5266 40.3421 14.9327C40.1057 13.2189 39.4046 12.3659 35.6952 11.5284C32.0673 10.7103 30.2941 9.10902 30.2208 9.03923C29.858 8.70579 29.8458 8.15134 30.2004 7.80238C30.5509 7.4573 31.1298 7.44567 31.4966 7.77912C31.5252 7.80238 33.0334 9.12841 36.1232 9.82632C39.7185 10.6367 41.7444 11.6564 42.1683 14.7001C42.6411 18.1043 38.6953 20.2252 37.5662 20.7874C36.8651 21.1402 36.058 19.5234 36.5227 19.3295Z" fill="#C69461"/>
<path d="M31.4882 7.78302C31.1255 7.44958 30.5425 7.46121 30.192 7.80629C29.8414 8.15524 29.8496 8.70582 30.2124 9.04314C30.2654 9.09355 31.2314 9.96206 33.1677 10.7453L33.5549 10.1016L35.0468 9.54719C32.6785 8.82601 31.5127 7.80241 31.4882 7.78302Z" fill="#F6BC41"/>
<defs>
<linearGradient id="paint0_linear_318_278" x1="12.5658" y1="12.0061" x2="29.4091" y2="17.7389" gradientUnits="userSpaceOnUse">
<stop stop-color="#FFF9C4" stop-opacity="0.1"/>
<stop offset="0.002" stop-color="#FFF9C4" stop-opacity="0.101"/>
<stop offset="0.378" stop-color="#FFFCA6" stop-opacity="0.263"/>
<stop offset="0.701" stop-color="#FFFE94" stop-opacity="0.401"/>
<stop offset="0.93" stop-color="#FFFF8D" stop-opacity="0.5"/>
</linearGradient>
<linearGradient id="paint1_linear_318_278" x1="37.0032" y1="20.827" x2="32.8423" y2="15.056" gradientUnits="userSpaceOnUse">
<stop offset="0.11" stop-color="#FFF9C4" stop-opacity="0"/>
<stop offset="1" stop-color="#FFFF8D"/>
</linearGradient>
</defs>
</svg>
