<svg width="147" height="138" viewBox="0 0 147 138" fill="none" xmlns="http://www.w3.org/2000/svg">
<path d="M130.463 5.90359C110.992 22.7552 94.5188 38.7968 79.4373 59.7263C72.7862 68.9575 65.3897 79.8226 60.5549 90.0808C57.7947 95.5203 52.8191 104.02 51.1228 112.192C41.8455 103.561 31.8804 93.7641 21.6845 86.0906C14.4172 80.6234 -6.51462 91.7701 2.0058 98.1812C17.2766 109.667 29.9764 123.973 44.8295 135.972C51.0421 140.984 64.8104 130.098 68.046 125.531C78.6665 110.484 80.1181 92.0909 87.8585 75.6778C99.6768 50.5758 120.636 29.9556 141.33 12.0493C155.041 -0.738273 140.88 -3.09685 130.484 5.90359" fill="#37B34A"/>
</svg>
