<svg width="43" height="43" viewBox="0 0 43 43" fill="none" xmlns="http://www.w3.org/2000/svg">
<path d="M17.917 14.3333V25.0833L26.3378 30.2791L27.7712 28.1291L20.6045 23.8291V14.3333H17.917Z" fill="white"/>
<path d="M32.1063 21.5001C32.3764 23.2809 32.2573 25.0991 31.7573 26.8294C31.2572 28.5598 30.3881 30.1613 29.2098 31.5235C28.0314 32.8857 26.5719 33.9764 24.9315 34.7205C23.2912 35.4645 21.5091 35.8442 19.708 35.8334C12.7205 35.8334 7.16634 30.2792 7.16634 23.2917C7.16634 16.3042 12.7205 10.7501 19.708 10.7501C20.9622 10.7501 22.1626 10.9292 23.2913 11.2697V7.57883C22.1447 7.31008 20.9443 7.16675 19.708 7.16675C10.7497 7.16675 3.58301 14.3334 3.58301 23.2917C3.58301 32.2501 10.7497 39.4167 19.708 39.4167C21.9793 39.4262 24.2267 38.9537 26.3019 38.0305C28.3771 37.1073 30.2329 35.7544 31.7467 34.0611C33.2604 32.3679 34.3978 30.3727 35.0837 28.2075C35.7696 26.0422 35.9883 23.7561 35.7255 21.5001H32.1063Z" fill="white"/>
<path d="M35.8333 8.95825V3.58325H32.25V8.95825H26.875V12.5416H32.25V17.9166H35.8333V12.5416H41.2083V8.95825H35.8333Z" fill="white"/>
</svg>
