<svg width="30" height="30" viewBox="0 0 30 30" fill="none" xmlns="http://www.w3.org/2000/svg">
<path d="M30 14.9997C30 6.71542 23.2843 -0.000276566 15 -0.000276566C6.71572 -0.000276566 0 6.71542 0 14.9997C0 22.4866 5.48528 28.6921 12.6562 29.8174V19.3356H8.84766V14.9997H12.6562V11.695C12.6562 7.93563 14.8956 5.85908 18.322 5.85908C19.9631 5.85908 21.6797 6.15204 21.6797 6.15204V9.84344H19.7882C17.9249 9.84344 17.3438 10.9997 17.3438 12.1859V14.9997H21.5039L20.8389 19.3356H17.3438V29.8174C24.5147 28.6921 30 22.4866 30 14.9997Z" fill="#1877F2"/>
<path d="M20.8389 19.336L21.5039 15.0001H17.3437V12.1863C17.3437 11.0001 17.9248 9.84383 19.7882 9.84383H21.6797V6.15244C21.6797 6.15244 19.9631 5.85947 18.322 5.85947C14.8956 5.85947 12.6562 7.93603 12.6562 11.6954V15.0001H8.84766V19.336H12.6562V29.8178C13.4199 29.9376 14.2027 30 15 30C15.7973 30 16.5801 29.9376 17.3437 29.8178V19.336H20.8389Z" fill="white"/>
</svg>
