<svg width="40" height="40" viewBox="0 0 40 40" fill="none" xmlns="http://www.w3.org/2000/svg">
<path d="M20 0C13.125 0 7.5 4.5 7.5 10V14H12.5V10C12.5 6.7 15.875 4 20 4C24.125 4 27.5 6.7 27.5 10V14H32.5V10C32.5 4.5 26.875 0 20 0Z" fill="#424242"/>
<path d="M35 40H5C2.25 40 0 38.2 0 36V18C0 15.8 2.25 14 5 14H35C37.75 14 40 15.8 40 18V36C40 38.2 37.75 40 35 40Z" fill="#FB8C00"/>
<path d="M20 30C22.0711 30 23.75 28.6569 23.75 27C23.75 25.3431 22.0711 24 20 24C17.9289 24 16.25 25.3431 16.25 27C16.25 28.6569 17.9289 30 20 30Z" fill="#C76E00"/>
</svg>
