<svg width="50" height="50" viewBox="0 0 50 50" fill="none" xmlns="http://www.w3.org/2000/svg">
<path d="M16.0714 0C14.6506 0 13.288 0.65848 12.2834 1.83058C11.2787 3.00269 10.7143 4.5924 10.7143 6.25V8.33333H7.14286C5.24845 8.33333 3.43164 9.21131 2.09209 10.7741C0.752549 12.3369 0 14.4565 0 16.6667V35.4167C0 37.0743 0.564412 38.664 1.56907 39.8361C2.57373 41.0082 3.93634 41.6667 5.35714 41.6667H10.7143V43.75C10.7143 45.4076 11.2787 46.9973 12.2834 48.1694C13.288 49.3415 14.6506 50 16.0714 50H34.2857C35.7065 50 37.0691 49.3415 38.0738 48.1694C39.0784 46.9973 39.6429 45.4076 39.6429 43.75V41.6667H44.6429C46.0637 41.6667 47.4263 41.0082 48.4309 39.8361C49.4356 38.664 50 37.0743 50 35.4167V16.6667C50 14.4565 49.2474 12.3369 47.9079 10.7741C46.5684 9.21131 44.7515 8.33333 42.8571 8.33333H39.2857V6.25C39.2857 4.5924 38.7213 3.00269 37.7166 1.83058C36.712 0.65848 35.3494 0 33.9286 0H16.0714ZM35.7143 8.33333H14.2857V6.25C14.2857 5.69747 14.4739 5.16756 14.8087 4.77686C15.1436 4.38616 15.5978 4.16667 16.0714 4.16667H33.9286C34.4022 4.16667 34.8564 4.38616 35.1913 4.77686C35.5261 5.16756 35.7143 5.69747 35.7143 6.25V8.33333ZM16.0714 33.3333H34.2857C34.7593 33.3333 35.2135 33.5528 35.5484 33.9435C35.8833 34.3342 36.0714 34.8641 36.0714 35.4167V43.75C36.0714 44.3025 35.8833 44.8324 35.5484 45.2231C35.2135 45.6138 34.7593 45.8333 34.2857 45.8333H16.0714C15.5978 45.8333 15.1436 45.6138 14.8087 45.2231C14.4739 44.8324 14.2857 44.3025 14.2857 43.75V35.4167C14.2857 34.8641 14.4739 34.3342 14.8087 33.9435C15.1436 33.5528 15.5978 33.3333 16.0714 33.3333Z" fill="#1A2B61"/>
</svg>
