<svg width="50" height="50" viewBox="0 0 50 50" fill="none" xmlns="http://www.w3.org/2000/svg">
<path d="M24.9996 2.77783C20.6044 2.77783 16.308 4.08114 12.6536 6.52295C8.99915 8.96476 6.15087 12.4354 4.46892 16.496C2.78697 20.5566 2.3469 25.0247 3.20435 29.3354C4.0618 33.6461 6.17826 37.6057 9.28609 40.7135C12.3939 43.8214 16.3535 45.9378 20.6642 46.7953C24.9749 47.6527 29.4431 47.2127 33.5037 45.5307C37.5642 43.8488 41.0349 41.0005 43.4767 37.3461C45.9185 33.6916 47.2218 29.3952 47.2218 25.0001C47.2218 19.1064 44.8805 13.454 40.7131 9.28657C36.5456 5.1191 30.8933 2.77783 24.9996 2.77783ZM25.0829 27.3334C24.8483 27.3352 24.6156 27.2906 24.3983 27.2021C24.181 27.1135 23.9834 26.9829 23.8168 26.8176C23.6503 26.6524 23.5181 26.4558 23.4279 26.2392C23.3377 26.0226 23.2912 25.7902 23.2912 25.5556V12.0139C23.2912 11.5388 23.48 11.083 23.816 10.747C24.152 10.411 24.6077 10.2223 25.0829 10.2223C25.5581 10.2223 26.0138 10.411 26.3498 10.747C26.6858 11.083 26.8746 11.5388 26.8746 12.0139V25.5556C26.8746 25.7902 26.8281 26.0226 26.7379 26.2392C26.6477 26.4558 26.5155 26.6524 26.349 26.8176C26.1824 26.9829 25.9848 27.1135 25.7675 27.2021C25.5502 27.2906 25.3175 27.3352 25.0829 27.3334ZM24.9996 38.5973C22.0743 38.6319 19.2145 37.7307 16.8376 36.0252C14.4607 34.3198 12.691 31.8993 11.7868 29.117C10.8827 26.3348 10.8914 23.3364 11.8116 20.5594C12.7319 17.7824 14.5156 15.3723 16.9024 13.6806C17.3181 13.3843 17.8337 13.2634 18.3378 13.3439C18.8419 13.4245 19.2941 13.7001 19.5968 14.1112C19.7446 14.3142 19.8507 14.5444 19.909 14.7887C19.9674 15.0329 19.9768 15.2863 19.9368 15.5342C19.8968 15.782 19.8081 16.0196 19.6758 16.233C19.5436 16.4465 19.3704 16.6316 19.1662 16.7778C17.7934 17.7861 16.7017 19.1291 15.9951 20.679C15.2886 22.2289 14.9909 23.9339 15.1303 25.6315C15.2697 27.3291 15.8416 28.9627 16.7915 30.3766C17.7413 31.7904 19.0375 32.9374 20.5565 33.7082C22.0754 34.479 23.7665 34.8478 25.4685 34.7796C27.1704 34.7114 28.8265 34.2084 30.2789 33.3185C31.7313 32.4286 32.9315 31.1815 33.7652 29.6962C34.5989 28.2108 35.0382 26.5367 35.0412 24.8334C35.0366 23.264 34.6558 21.7186 33.9308 20.3266C33.2059 18.9347 32.1579 17.7368 30.8746 16.8334C30.4794 16.5215 30.224 16.0658 30.1641 15.566C30.1042 15.0662 30.2448 14.5631 30.5551 14.1667C30.8619 13.76 31.3161 13.4899 31.82 13.4146C32.3239 13.3392 32.8372 13.4647 33.2496 13.7639C35.6114 15.475 37.3667 17.894 38.2607 20.6701C39.1547 23.4462 39.141 26.435 38.2215 29.2027C37.302 31.9705 35.5246 34.3733 33.1471 36.0626C30.7696 37.7518 27.9158 38.6397 24.9996 38.5973Z" fill="#EC5353"/>
</svg>
