<svg width="83" height="83" viewBox="0 0 83 83" fill="none" xmlns="http://www.w3.org/2000/svg">
<path d="M81.408 19.6057C81.8171 19.9321 82.0848 20.4064 82.1556 20.9301C82.2263 21.4538 82.0946 21.9865 81.7878 22.4173C81.4811 22.8482 81.0229 23.144 80.5086 23.2434C79.9943 23.3427 79.4634 23.2378 79.0265 22.9505C71.33 17.3863 63.1405 21.5122 58.3516 25.0872L60.4241 27.7128C61.1186 28.5951 61.4382 30.2038 61.1316 31.291L58.0193 41.6809C57.6068 42.9406 56.8664 44.0666 55.8764 44.94L25.6457 69.3464C24.9408 69.9136 24.0446 70.1767 23.1534 70.0782C22.2623 69.9796 21.4487 69.5274 20.8909 68.8206L5.3466 49.0959C4.19059 47.6201 4.85918 46.0048 6.32102 44.8184L36.555 20.4129C37.4293 19.713 39.055 19.0857 40.1743 19.0256L51.253 18.7522C52.3691 18.6911 53.8458 19.3641 54.5403 20.2463L55.8033 21.8459C62.2752 17.0576 72.3877 13.0872 81.408 19.6057V19.6057ZM47.0947 24.9924C46.5384 25.4422 46.0744 25.9978 45.729 26.6276C45.3837 27.2573 45.1638 27.9488 45.082 28.6625C45.0002 29.3762 45.058 30.0981 45.2522 30.7871C45.4463 31.476 45.7731 32.1184 46.2136 32.6776C47.105 33.8097 48.4066 34.5341 49.8326 34.6919C51.2587 34.8497 52.6927 34.4279 53.8198 33.5192C54.7021 32.8064 55.3443 31.8341 55.6567 30.7383C55.9691 29.6425 55.9361 28.4779 55.5624 27.4074C54.773 28.1394 54.2842 28.6585 54.2023 28.7585C53.8929 29.107 53.4765 29.3396 53.0213 29.4184C52.5662 29.4971 52.0993 29.4173 51.6972 29.192C51.295 28.9667 50.9815 28.6092 50.8079 28.1782C50.6344 27.7472 50.6111 27.2682 50.7419 26.8196C50.8246 26.539 50.9736 26.2708 51.179 26.037C51.6616 25.4912 52.2124 24.9158 52.8362 24.33C51.9189 23.8825 50.8933 23.7073 49.8775 23.8244C48.8617 23.9416 47.8971 24.3465 47.0947 24.9924V24.9924Z" fill="#FAB913"/>
<path d="M31.4584 57.7619L20.1243 40.7962C19.8833 40.4357 19.7664 40.0071 19.7919 39.5775C19.8175 39.148 19.984 38.7419 20.2654 38.4231C20.5467 38.1043 20.927 37.8908 21.3465 37.8162C21.766 37.7415 22.2008 37.8099 22.5828 38.0107L43.0864 48.7788C43.4684 48.9796 43.9033 49.048 44.3227 48.9733C44.7422 48.8987 45.1225 48.6852 45.4039 48.3664C45.6853 48.0476 45.8518 47.6415 45.8773 47.212C45.9029 46.7824 45.786 46.3538 45.545 45.9933L34.2108 29.0276" stroke="#324995" stroke-width="2" stroke-linecap="round" stroke-linejoin="round"/>
<path d="M20.1416 47.3923L41.3875 33.1986" stroke="#324995" stroke-width="2" stroke-linecap="round" stroke-linejoin="round"/>
<path d="M24.2822 53.5909L45.5281 39.3972" stroke="#324995" stroke-width="2" stroke-linecap="round" stroke-linejoin="round"/>
</svg>
