<svg width="306" height="306" viewBox="0 0 306 306" fill="none" xmlns="http://www.w3.org/2000/svg">
<path d="M105.714 166.019C105.714 166.019 158.642 99.0819 89.3857 73.8847C20.1388 48.697 55.3097 66.3733 2.70161 38.25C2.70161 38.25 -6.5023 53.6313 17.6335 84.7094L3.43314 82.9308C3.43314 82.9308 -0.434892 106.086 36.5481 112.178L20.8608 118.494C20.8608 118.494 33.6698 132.79 55.697 128.754L46.9999 138.604C46.9999 138.604 56.9592 148.133 76.7871 137.896L70.0599 145.317C70.0599 145.317 83.3278 157.313 97.8485 149.969C97.8485 149.969 109.921 147.349 105.714 166.019Z" fill="#B3B3B3"/>
<path d="M105.904 154.243C105.904 154.243 148.233 100.722 92.8565 80.5737C37.4944 60.4446 65.6129 74.5732 23.5475 52.0918C23.5475 52.0918 16.1939 64.3892 35.491 89.2469L24.1356 87.8269C24.1356 87.8269 21.0421 106.33 50.6093 111.207L38.0681 116.251C38.0681 116.251 48.3096 127.688 65.9237 124.456L58.9622 132.326C58.9622 132.326 66.9325 139.952 82.7824 131.767L77.4082 137.71C77.4082 137.71 88.0131 147.272 99.6267 141.41C99.6267 141.41 109.285 139.311 105.904 154.243" fill="#E6E6E6"/>
<path fill-rule="evenodd" clip-rule="evenodd" d="M166.019 209.06C159.861 188.821 165.99 209.433 159.784 189.983C157.843 183.892 155.347 177.757 152.139 172.603C149.988 169.146 146.287 166.101 143.012 165.073C134.386 162.362 125.622 160.478 116.887 158.943C103.476 156.591 90.0212 155.166 76.9015 149.486C76.2464 149.204 75.5962 148.869 74.377 148.271C75.4814 146.01 76.3038 143.729 77.5565 142.032C79.1486 139.88 80.956 137.977 82.9115 136.404C88.7111 131.771 93.8701 126.297 97.9533 119.192C98.7852 117.772 99.8132 116.538 100.784 115.266C103.662 111.566 107.138 110.294 111.25 112.556C115.462 114.894 119.297 115.042 123.433 112.967C128.386 110.5 133.86 111.996 139.096 113.622C146.177 115.792 153.148 118.69 160.22 120.703C164.585 121.917 169.05 122.195 173.464 122.74C178.293 123.28 182.237 126.402 185.837 130.552C191.039 136.586 194.845 144.083 197.088 152.269C199.813 162.209 199.254 150.753 198.312 156.548C200.621 164.733 197.069 169.778 192.713 175.032C185.245 184.04 178.56 194.114 171.432 203.624C169.968 205.565 168.109 206.985 166.019 209.06V209.06ZM121.883 126.479C120.406 121.018 118.723 119.397 115.008 120.253C113.177 120.665 111.403 121.731 109.887 123.041C108.52 124.255 107.449 124.666 105.737 123.638C104.967 123.189 103.81 124.069 102.83 124.346C103.437 125.503 103.839 127.205 104.652 127.731C106.65 129.022 107.597 130.59 107.846 133.545C108.386 139.507 111.427 143.447 116.05 144.7C120.798 145.972 124.743 144.212 128.123 140.382C128.692 139.727 129.514 138.795 130.141 138.943C132.46 139.522 134.745 140.511 137.532 141.525C135.448 143.222 133.822 144.384 132.35 145.804C129.342 148.702 129.529 152.159 133.095 154.812C134.573 155.912 136.973 156.643 138.254 155.859C141.586 153.789 144.6 151.246 147.2 148.31C148.797 146.536 149.863 145.226 152.235 146.665C153.354 147.358 154.841 146.909 156.16 146.947C156.27 146.426 156.385 145.862 156.504 145.321C155.113 144.198 153.784 142.778 152.311 142.032C150.724 141.229 149.954 140.497 149.825 138.049C149.423 130.815 146.014 126.369 140.416 125.398C135.419 124.556 130.652 125.565 127.042 129.677C124.986 132.034 123.284 131.489 121.138 130.275C120.167 129.749 119.144 129.452 118.154 129.022C118.221 128.687 118.274 128.348 118.35 128.032C119.474 127.521 120.607 127.038 121.883 126.479V126.479ZM177.724 147.593C175.586 146.134 173.521 144.695 171.355 143.203C170.757 146.569 172.45 147.688 173.999 148.683C175.481 149.615 176.997 149.911 177.724 147.593ZM177.968 143.222C176.882 140.736 175.931 138.661 174.645 135.764C173.268 141.802 173.578 142.419 177.968 143.222Z" fill="#E6A42E"/>
<path d="M175.639 197.977C169.471 177.758 175.634 198.35 169.385 178.895C167.444 172.804 164.948 166.67 161.73 161.535C159.593 158.059 155.892 155.013 152.612 153.985C149.928 153.144 147.221 152.377 144.494 151.685C142.585 153.471 140.503 155.061 138.278 156.433C137.006 157.217 134.606 156.51 133.129 155.405C130.456 153.407 129.672 150.959 130.719 148.625C129.307 148.357 127.894 148.1 126.478 147.856C113.081 145.503 99.6408 144.078 86.5019 138.398C85.8469 138.116 85.211 137.781 83.9822 137.203C84.2739 136.624 84.5416 136.027 84.8046 135.448C84.202 135.975 83.585 136.485 82.9543 136.978C80.9323 138.616 79.1293 140.508 77.5897 142.606C76.337 144.322 75.5146 146.603 74.4102 148.869C75.6246 149.448 76.2796 149.782 76.9347 150.065C90.0544 155.764 103.509 157.165 116.92 159.522C125.656 161.057 134.42 162.96 143.045 165.671C146.325 166.698 150.016 169.744 152.163 173.182C155.366 178.341 157.872 184.49 159.818 190.562C166.014 210.012 159.894 189.4 166.052 209.639C168.147 207.564 170.002 206.149 171.465 204.222C173.306 201.731 175.127 199.249 176.939 196.73C176.509 197.136 176.079 197.547 175.639 197.977" fill="#C4872B"/>
<path fill-rule="evenodd" clip-rule="evenodd" d="M26.3682 218.015C30.1597 213.731 33.2436 209.433 36.9443 206.277C48.84 196.15 58.8663 183.289 69.1364 170.824C72.7511 166.416 75.2182 160.377 78.5077 154.53C100.497 161.706 123.863 161.238 146.291 171.293C142.366 176.246 138.388 180.855 134.807 185.942C130.026 192.708 125.565 199.846 120.893 206.76C115.029 215.487 109.129 224.191 103.193 232.87C97.3793 241.371 90.3556 243.279 81.3 239.014C66.2639 231.938 50.5272 226.457 34.3481 222.662C31.9909 222.084 29.7485 220.033 26.3682 218.015V218.015ZM130.336 106.966C133.702 104.073 136.858 100.798 140.43 98.369C147.095 93.8842 152.67 87.7546 158.072 81.1756C161.453 77.0255 165.268 73.4204 169.002 69.7389C171.054 67.7021 173.062 67.6112 175.787 69.6624C185.89 77.2693 196.887 79.8464 207.96 81.496C212.966 82.2418 217.986 82.6913 223.499 83.3272C222.251 84.8572 221.309 86.1481 220.262 87.2717C210.145 98.2064 200.004 109.084 189.892 120.014C187.362 122.763 184.628 123.002 181.176 122.012C165.88 117.585 150.518 113.564 135.194 109.38C133.679 108.969 132.177 108.41 130.671 107.922L130.336 106.966" fill="#4FBA80"/>
<path fill-rule="evenodd" clip-rule="evenodd" d="M29.9733 222.199C40.3104 223.169 50.2314 227.659 60.2099 231.598C67.2766 234.386 74.3576 237.245 81.4291 239.994C89.1173 243.002 95.6437 240.836 100.745 233.827C107.603 224.388 114.304 214.837 120.846 205.177C125.818 197.814 130.408 190.078 135.285 182.658C138.536 177.704 142.476 174.08 147.86 173.296C149.184 176.475 147.955 178.584 146.526 180.511C141.697 186.903 136.724 193.066 132.039 199.631C124.384 210.303 117.04 221.347 109.361 231.981C105.79 236.896 101.84 241.405 97.8097 245.717C94.4532 249.327 90.1071 249.514 85.8087 248.428C81.3048 247.286 76.8773 245.306 72.3925 244.034C64.7664 241.849 57.1069 239.923 49.4521 237.867C44.9721 236.624 40.4299 235.615 35.9929 233.975C31.6945 232.383 29.7486 228.213 29.9542 222.199" fill="#338455"/>
<path fill-rule="evenodd" clip-rule="evenodd" d="M42.7969 245.278C55.9883 248.625 69.1559 251.465 82.1896 255.467C88.3383 257.336 93.4016 256.906 97.4944 251.56C104.054 243.021 110.327 234.128 116.715 225.378C126.373 212.182 135.983 198.986 145.689 185.852C146.933 184.13 148.4 182.691 149.753 181.123C152.369 185.794 152.388 187.702 149.911 191.255C135.888 211.532 121.86 231.823 107.741 252.01C105.723 254.926 103.275 257.336 100.975 259.913C97.6474 263.633 93.5738 264.867 89.2133 262.739C79.3543 257.91 69.1033 258.178 59.0962 255.151C55.6106 254.099 51.9769 254.51 48.4244 253.784C44.6424 253.014 42.9164 250.322 42.8064 245.278" fill="#338455"/>
<path fill-rule="evenodd" clip-rule="evenodd" d="M36.5522 234.615C37.9722 234.711 39.4114 234.615 40.8314 234.931C53.1097 237.694 65.4644 239.545 77.4223 245.713C82.916 248.557 89.0073 250.255 94.4006 247.133C97.7761 245.172 100.855 241.978 103.471 238.555C113.033 225.942 122.385 213.047 131.747 200.209C135.734 194.754 139.435 188.959 143.547 183.671C145.498 181.147 148.099 179.487 150.418 177.427C150.733 177.819 151.054 178.211 151.369 178.589C150.623 180.382 150.107 182.476 149.079 183.934C135.924 202.761 122.671 221.519 109.323 240.209C105.548 245.437 101.444 250.418 97.035 255.122C95.5672 256.709 92.971 257.757 91.0489 257.269C74.8357 253.119 58.6798 248.562 42.5144 244.13C38.7755 243.121 36.4853 240.448 36.5522 234.634" fill="#338455"/>
<path fill-rule="evenodd" clip-rule="evenodd" d="M52.0725 250.25C64.7333 253.539 77.1884 256.681 89.6005 260.099C94.0423 261.333 97.9295 260.754 100.937 256.738C109.667 245.11 118.412 233.472 126.952 221.6C133.904 211.904 140.54 201.806 147.415 191.981C148.893 189.853 150.734 188.093 152.507 186.057C155.338 192.597 155.357 192.617 151.929 196.446C140.444 209.207 131.446 224.866 121.774 239.764C115.716 249.093 109.142 257.799 102.825 266.826C101.668 268.509 100.368 268.677 98.5558 268.414C88.3431 266.922 78.1208 265.894 67.9271 264.307C63.318 263.599 58.7423 261.988 54.1332 260.812C51.5992 260.156 50.5808 258.531 51.4509 255.304C51.7952 254.06 51.7952 252.659 52.0725 250.25" fill="#338455"/>
<path fill-rule="evenodd" clip-rule="evenodd" d="M61.2422 265.359C63.2408 265.134 65.225 264.632 67.2379 264.742C72.2295 265.038 77.2737 265.899 82.2558 265.994C86.5254 266.071 90.7712 265.249 95.0408 265.115C97.9861 265.019 101.037 264.89 103.915 265.808C111.455 268.199 116.633 265.153 119.951 256.877C127.549 237.885 139.922 224.096 150.656 208.586C152.421 206.028 154.309 203.58 156.121 201.094C159.468 204.627 159.822 208.978 157.57 212.363C150.078 223.556 142.853 235.069 135.246 246.119C129.506 254.375 123.514 262.452 117.278 270.341C113.941 274.582 109.552 276.614 104.551 275.719C91.0868 273.219 77.6228 270.527 64.1779 267.85C63.2312 267.682 62.318 267.046 61.3904 266.635C61.333 266.224 61.2757 265.813 61.2422 265.382" fill="#338455"/>
<path fill-rule="evenodd" clip-rule="evenodd" d="M102.82 265.407C115.873 245.593 128.63 225.976 141.654 206.669C144.795 202.012 148.725 198.278 152.416 194.333C153.258 193.454 155.491 192.856 155.61 193.1C156.542 195.29 158.34 197.475 156.729 200.147C153.994 204.651 151.441 209.38 148.563 213.717C143.404 221.529 137.891 228.93 132.856 236.853C128.773 243.303 124.848 250.011 121.429 257.111C117.991 264.288 113.645 268.022 106.607 265.746C105.503 265.387 104.336 265.517 102.82 265.407" fill="#338455"/>
<path fill-rule="evenodd" clip-rule="evenodd" d="M147.878 173.272C142.495 174.057 138.55 177.681 135.304 182.634C130.422 190.055 125.808 197.791 120.864 205.154C114.324 214.815 107.623 224.366 100.764 233.803C98.512 236.901 95.9827 239.072 93.1475 240.253C93.8551 242.72 94.6631 245.163 95.5237 247.578C96.3461 247.104 97.1302 246.488 97.8618 245.684C101.888 241.372 105.842 236.863 109.413 231.948C117.092 221.314 124.441 210.275 132.091 199.598C136.772 193.038 141.749 186.87 146.578 180.478C148.003 178.561 149.236 176.447 147.907 173.272H147.878ZM149.748 181.118C148.395 182.692 146.927 184.126 145.684 185.847C136.007 198.986 126.368 212.177 116.709 225.374C110.307 234.119 104.039 243.012 97.4888 251.556C97.3932 251.685 97.2832 251.8 97.1924 251.91C98.3542 254.654 99.6213 257.293 101.022 259.832C103.303 257.293 105.732 254.879 107.73 252.001C121.849 231.814 135.877 211.522 149.901 191.245C152.373 187.697 152.354 185.79 149.738 181.118" fill="#276C43"/>
<path fill-rule="evenodd" clip-rule="evenodd" d="M150.422 177.432C148.103 179.488 145.507 181.152 143.552 183.677C139.44 188.965 135.739 194.759 131.751 200.215C122.39 213.072 113.042 225.971 103.475 238.561C101.085 241.721 98.2445 244.671 95.1797 246.631C96.0403 249.137 97.0205 251.566 98.0867 253.956C102.108 249.597 105.862 244.999 109.327 240.186C122.672 221.554 135.902 202.735 149.083 183.911C150.111 182.453 150.628 180.358 151.374 178.565C151.051 178.186 150.734 177.802 150.422 177.413V177.432ZM152.502 186.072C150.728 188.109 148.887 189.863 147.41 191.996C140.535 201.826 133.898 211.919 126.946 221.616C118.407 233.483 109.662 245.125 100.932 256.753C100.633 257.142 100.316 257.515 99.9801 257.872C101.252 260.339 102.653 262.715 104.183 264.939C110.069 256.586 116.15 248.458 121.768 239.78C131.441 224.886 140.439 209.223 151.924 196.462C155.356 192.632 155.337 192.613 152.502 186.072V186.072ZM156.121 201.052C154.309 203.543 152.421 205.986 150.657 208.544C139.918 224.073 127.549 237.867 119.951 256.834C116.805 264.719 111.971 267.841 104.991 266.067C107.176 269.122 109.702 271.918 112.521 274.401C114.262 273.449 115.868 272.048 117.279 270.275C123.515 262.387 129.507 254.309 135.247 246.053C142.854 235.008 150.078 223.495 157.57 212.297C159.822 208.912 159.468 204.561 156.121 201.028" fill="#276C43"/>
<path fill-rule="evenodd" clip-rule="evenodd" d="M155.615 193.1C155.495 192.856 153.258 193.459 152.421 194.333C148.73 198.278 144.795 202.012 141.658 206.669C128.907 225.565 116.409 244.776 103.647 264.14C103.944 264.589 104.245 265.039 104.546 265.464C105.297 265.483 105.966 265.522 106.621 265.727C113.659 268.008 118.001 264.269 121.443 257.092C124.862 249.992 128.787 243.279 132.87 236.834C137.905 228.911 143.423 221.51 148.577 213.698C151.455 209.361 154.008 204.632 156.743 200.128C158.345 197.46 156.552 195.271 155.615 193.086V193.1ZM190.733 128.084C189.519 126.497 188.472 125.13 187.205 123.49C188.4 122.07 189.476 120.688 190.623 119.378C199.798 109.022 209.05 98.8376 218.048 88.2806C220.391 85.517 222.71 85.3879 225.402 86.4111C226.97 91.7374 225.832 95.4573 222.672 98.4073C212.263 108.089 201.969 117.92 191.632 127.692C191.422 127.898 191.106 127.912 190.733 128.084" fill="#276C43"/>
<path fill-rule="evenodd" clip-rule="evenodd" d="M192.731 131.819C190.8 124.719 190.78 124.699 194.615 121.166C204.068 112.436 213.568 103.758 223.116 95.1322C223.948 94.3863 225.225 94.1808 226.319 94.2333C229.642 94.3433 231.148 97.3364 229.298 100.755C227.821 103.576 225.927 106.306 223.714 108.042C215.705 114.319 207.477 120.133 199.368 126.186C198.034 127.195 196.829 128.52 195.509 129.643C194.629 130.418 193.697 131.073 192.731 131.819V131.819ZM229.738 112.421C231.488 115.787 230.752 118.737 228.877 120.698C225.196 124.566 221.232 128.061 217.34 131.613C211.397 137.03 205.397 142.395 199.425 147.74C198.995 148.132 198.473 148.395 197.761 148.883C197.144 145.857 196.389 143.107 196.078 140.339C195.949 139.311 196.618 137.8 197.331 137.198C201.844 133.272 206.377 129.366 211.067 125.818C217.125 121.262 223.331 117.002 229.738 112.421" fill="#276C43"/>
<path fill-rule="evenodd" clip-rule="evenodd" d="M190.953 128.587C189.542 124.57 190.336 121.859 192.392 119.823C198.823 113.449 205.306 107.171 211.737 100.798C214.443 98.1252 217.159 95.4525 219.698 92.536C222.136 89.7485 223.809 89.7341 226.97 93.3583C217.905 109.768 204.225 118.608 190.953 128.587ZM194.376 135.39C193.649 133.129 193.085 131.393 192.287 128.85C204.221 119.545 216.289 110.107 228.495 100.611L231.225 103.92C221.4 118.833 207.625 126.234 194.376 135.39" fill="#276C43"/>
<path fill-rule="evenodd" clip-rule="evenodd" d="M196.652 141.204C196.093 139.239 195.605 137.465 194.979 135.242C201.156 130.59 207.395 126.162 213.405 121.3C218.956 116.796 224.264 111.809 229.729 107.133C230.427 106.554 232.067 106.105 232.22 106.406C233.004 107.941 234.462 109.246 233.19 111.603C229.863 117.919 225.229 122.179 220.128 125.674C212.406 130.924 204.594 135.949 196.652 141.204" fill="#276C43"/>
<path fill-rule="evenodd" clip-rule="evenodd" d="M62.4909 266.281C72.828 270.078 83.3372 267.104 93.5308 272.506C89.9592 272.396 86.3924 272.377 82.8352 272.153C76.8825 271.799 70.949 271.273 64.9963 270.957C62.6391 270.828 61.7833 269.571 62.4909 266.281" fill="#338455"/>
<path fill-rule="evenodd" clip-rule="evenodd" d="M121.883 126.478C120.602 127.037 119.474 127.525 118.35 128.027C118.274 128.343 118.221 128.682 118.154 129.017C119.144 129.447 120.162 129.744 121.137 130.27C123.284 131.484 124.986 132.024 127.042 129.672C130.647 125.56 135.414 124.551 140.415 125.393C146.01 126.368 149.423 130.815 149.825 138.044C149.954 140.492 150.724 141.223 152.311 142.027C153.789 142.773 155.113 144.193 156.504 145.316C156.385 145.856 156.27 146.416 156.16 146.942C154.845 146.904 153.358 147.353 152.235 146.66C149.858 145.221 148.797 146.531 147.2 148.304C144.601 151.242 141.587 153.786 138.254 155.854C136.973 156.643 134.573 155.911 133.095 154.807C129.524 152.153 129.337 148.697 132.35 145.799C133.827 144.379 135.453 143.217 137.532 141.52C134.745 140.511 132.459 139.521 130.141 138.938C129.514 138.79 128.692 139.722 128.123 140.377C124.738 144.207 120.798 145.966 116.05 144.695C111.427 143.442 108.386 139.502 107.846 133.54C107.592 130.585 106.65 129.017 104.652 127.726C103.839 127.205 103.437 125.503 102.83 124.341C103.81 124.059 104.967 123.184 105.737 123.633C107.444 124.661 108.52 124.25 109.887 123.036C111.398 121.726 113.177 120.659 115.008 120.248C118.728 119.392 120.411 121.018 121.883 126.478V126.478ZM134.181 136.088L142.122 137.939C139.789 132.746 138.9 132.522 134.181 136.088ZM115.959 132.837C116.438 134.687 116.748 135.94 117.045 137.193L120.607 136.017C120.521 135.72 120.43 135.457 120.363 135.175L115.959 132.837" fill="white"/>
<path fill-rule="evenodd" clip-rule="evenodd" d="M177.719 147.592C176.992 149.911 175.477 149.61 173.994 148.677C172.445 147.683 170.753 146.564 171.35 143.198C173.516 144.695 175.582 146.134 177.719 147.592ZM177.958 143.222C173.569 142.419 173.263 141.802 174.635 135.763C175.921 138.661 176.873 140.736 177.958 143.222ZM134.162 136.098C138.881 132.526 139.77 132.751 142.104 137.948L134.162 136.098ZM115.945 132.847L120.349 135.185C120.416 135.467 120.507 135.725 120.593 136.026L117.031 137.202C116.682 135.747 116.32 134.295 115.945 132.847" fill="#E6A42E"/>
<path d="M176.902 193.793C176.902 193.793 128.707 109.022 206.44 90.4084C284.16 71.795 244.05 86.8751 304.265 62.376C304.265 62.376 312.159 81.4388 282.175 113.526L297.671 113.602C297.671 113.602 298.809 140.774 258.255 142.271L274.296 151.833C274.296 151.833 258.661 166.354 235.52 158.431L243.586 171.049C243.586 171.049 231.647 180.506 211.666 165.794L217.93 175.328C217.93 175.328 202.099 187.119 187.449 176.524C187.449 176.524 174.812 171.742 176.902 193.789" fill="#B3B3B3"/>
<path d="M178.197 180.244C178.197 180.244 139.661 112.479 201.802 97.5855C263.94 82.6919 231.891 94.7454 280.019 75.1758C280.019 75.1758 286.325 90.4088 262.362 116.065L274.74 116.122C274.74 116.122 275.658 137.839 243.242 139.034L256.074 146.699C256.074 146.699 243.571 158.303 225.054 151.987L231.523 162.061C231.523 162.061 221.97 169.629 205.991 157.877L210.992 165.484C210.992 165.484 198.341 174.922 186.632 166.455C186.632 166.455 176.514 162.601 178.197 180.244" fill="#E6E6E6"/>
</svg>
