<svg width="349" height="349" viewBox="0 0 349 349" fill="none" xmlns="http://www.w3.org/2000/svg">
<path d="M343.183 109.935C307.12 77.3621 271.057 44.2071 234.993 11.6338C182.062 91.9038 92.485 163.449 7.56167 215.217C5.235 226.269 2.90833 236.739 0 247.209C37.2267 280.945 74.4533 315.264 111.68 349C199.512 300.722 292.578 232.085 349 154.142C347.255 139.6 344.928 125.059 343.183 109.935Z" fill="#699635"/>
<path d="M118.66 305.957C82.0146 272.22 45.3696 238.483 8.72461 205.328C100.046 153.56 176.826 83.1783 233.248 0C269.893 33.7367 306.538 66.8917 343.183 100.628C286.761 183.807 209.981 254.188 118.66 305.957" fill="#83BF4F"/>
<path d="M109.354 283.856C84.9245 261.752 60.4945 239.067 36.0645 216.964C37.8095 215.801 38.9728 215.219 40.7178 214.056C45.3711 211.147 46.5345 205.912 42.4628 201.841L38.9728 198.351C112.844 152.981 176.828 94.814 226.851 27.3407L230.341 30.8307C234.413 34.3207 240.229 33.739 243.719 29.6674C244.883 28.504 245.464 26.759 246.628 25.5957C271.058 47.699 295.488 70.384 319.918 92.4874C318.754 93.6507 318.173 95.3957 317.009 96.559C313.519 101.212 314.101 107.611 318.173 111.682L321.663 115.172C271.639 182.064 207.656 240.231 133.784 285.601L130.294 282.111C126.223 278.621 119.243 278.039 114.008 280.947C112.263 282.111 111.099 282.692 109.354 283.856V283.856ZM51.7695 217.546C71.5461 235.577 91.3228 253.609 111.681 272.222C119.243 269.896 127.968 270.477 134.948 273.967C202.421 230.924 261.169 177.411 308.284 115.172C304.213 108.774 303.631 100.631 306.539 93.6507C286.763 75.619 266.986 57.5874 246.628 38.974C241.393 43.6274 233.831 44.209 227.433 40.719C180.318 103.539 121.569 157.052 54.0961 200.096C57.5861 205.912 57.0045 212.892 51.7695 217.546" fill="#699635"/>
<path d="M104.699 205.33C111.097 203.004 118.077 203.585 122.731 207.657C119.822 209.984 116.332 212.31 113.424 214.637C112.261 213.474 109.352 213.474 108.189 214.637C106.444 215.8 105.862 217.545 107.607 218.709C108.771 219.872 111.679 219.872 113.424 218.709C120.404 214.055 130.292 213.474 135.527 218.709C139.599 222.78 140.181 228.597 136.109 233.25C137.272 234.414 138.436 234.995 139.599 236.159C136.691 237.904 133.782 240.23 130.874 241.975C129.711 240.812 128.547 239.649 127.384 239.067C120.986 240.812 114.006 240.23 109.934 236.159C113.424 233.832 116.332 232.087 119.822 229.76C120.986 230.924 123.894 230.924 125.639 229.76C127.384 228.597 127.384 226.852 126.221 225.689C125.057 224.525 122.731 224.525 120.986 225.689C116.914 228.597 111.679 229.76 107.026 229.179C103.536 228.597 100.627 227.434 98.3005 225.689C94.2289 221.617 94.2289 216.382 97.7189 211.729C96.5555 211.147 95.9739 209.984 94.8105 208.82C97.7189 207.075 100.627 204.749 103.536 203.004C102.954 203.585 104.117 204.167 104.699 205.33V205.33ZM239.646 80.8536C244.881 77.3636 251.279 77.3636 255.351 81.4353L248.371 90.1603C247.207 88.997 244.881 88.997 243.717 90.742C242.554 92.487 242.554 94.8136 243.717 95.977C244.881 97.1403 247.207 97.1403 248.371 95.3953C253.606 88.997 262.331 87.8336 267.566 92.487C271.637 96.5586 272.801 102.957 270.474 108.774C271.637 109.937 272.801 110.519 273.964 111.682C271.637 114.59 269.892 116.917 267.566 119.825C266.402 118.662 265.239 117.499 264.076 116.917C258.841 119.825 253.024 119.825 248.952 115.754C251.279 112.845 254.187 109.937 256.514 107.029C257.677 108.192 260.004 108.192 261.167 106.447C262.331 104.702 262.331 102.375 261.167 101.212C260.004 100.049 257.677 100.049 256.514 101.794C253.606 105.284 248.952 107.61 244.881 107.61C241.972 107.61 239.064 106.447 236.737 104.702C232.666 100.63 231.502 94.8136 233.829 88.997C232.666 88.4153 232.084 87.252 230.921 86.0886C233.247 83.762 235.574 80.8536 237.319 77.9453C237.319 79.1086 238.482 79.6903 239.646 80.8536V80.8536ZM222.196 194.86C203.582 211.729 172.172 211.147 154.141 194.86C136.109 177.992 137.272 151.817 155.886 134.949C174.499 118.08 203.582 116.335 221.614 133.204C240.227 149.49 240.809 177.992 222.196 194.86Z" fill="#699635"/>
<path d="M115.169 130.874L225.104 231.502C237.901 221.032 249.534 209.98 261.167 198.347L151.814 97.7188C140.181 108.77 127.966 119.822 115.169 130.874Z" fill="#FFDD7D"/>
<path d="M225.686 275.71C237.901 266.403 250.116 256.515 261.749 246.627V197.767C250.116 209.4 237.901 220.452 225.686 230.922V275.71" fill="#DBB471"/>
<path d="M58.7461 132.037C65.1444 129.71 70.3794 126.22 75.6144 122.149C80.8494 118.077 85.5028 114.005 90.7378 109.352C95.9728 105.28 101.208 100.627 107.024 97.7187C112.841 94.2287 120.403 92.4837 126.801 93.647C120.403 94.8103 114.586 97.7187 109.351 101.79C104.116 105.28 99.4628 109.934 94.2278 114.005C88.9928 118.077 83.7578 122.73 77.9411 126.22C72.1244 129.71 65.1444 132.037 58.7461 132.037" fill="#8D9998"/>
<path d="M219.872 180.896C219.872 180.896 248.373 189.039 314.683 171.589C380.993 154.139 349.583 344.926 228.597 344.926C215.218 344.926 214.637 328.057 251.863 297.811C251.863 297.811 199.513 310.026 222.198 271.054C222.198 271.054 184.972 277.452 201.84 247.787C201.84 247.787 209.402 225.684 202.422 200.672C203.003 200.672 207.075 187.876 219.872 180.896" fill="#E8E8E8"/>
<path d="M346.093 190.206C347.256 241.393 306.539 326.316 225.688 326.316H224.524C216.963 338.531 220.453 345.511 228.596 345.511C320.499 344.929 360.634 235.576 346.093 190.206Z" fill="#D1D1D1"/>
<path d="M304.211 218.125C286.761 280.945 216.961 286.18 216.961 286.18C214.053 299.558 219.87 305.375 227.431 305.375C253.025 305.957 300.721 263.495 304.211 218.125ZM255.351 218.125C214.053 276.292 199.511 254.77 199.511 254.77C189.041 278.037 216.38 278.037 221.033 272.802C234.411 258.26 255.933 228.013 255.351 218.125Z" fill="#D1D1D1"/>
<path d="M223.941 328.06C230.921 318.753 239.646 311.192 248.371 303.63C257.096 296.068 265.821 288.507 274.546 280.363C282.689 272.22 290.833 262.913 296.649 252.443C302.466 241.973 305.374 229.758 304.211 218.125C303.048 229.758 298.976 240.81 292.578 250.117C286.179 259.423 278.618 268.148 270.474 276.292C262.331 284.435 253.606 291.997 245.463 300.722C236.738 308.283 229.176 317.59 223.941 328.06V328.06ZM216.961 286.18C219.288 279.782 222.778 274.547 226.849 269.312C230.921 264.077 234.993 259.423 239.646 254.188C243.718 248.953 248.371 243.718 251.279 237.902C254.769 232.085 256.514 224.523 255.351 218.125C254.188 224.523 251.279 230.34 247.208 235.575C243.718 240.81 239.064 245.463 234.993 250.698C230.921 255.933 226.268 261.168 222.778 266.985C219.288 272.802 216.961 279.782 216.961 286.18" fill="#8D9998"/>
<path d="M164.03 129.128C164.03 129.128 155.887 100.626 173.337 34.3162C190.787 -31.9938 0 -0.583802 0 120.403C0 133.781 16.8683 134.363 47.115 97.1362C47.115 97.1362 34.9 149.486 73.8717 126.801C73.8717 126.801 67.4733 164.028 97.1383 147.16C97.1383 147.16 119.242 139.598 144.253 146.578C144.253 145.996 157.05 141.925 164.03 129.128" fill="#E8E8E8"/>
<path d="M154.723 2.90747C103.537 1.74414 18.6133 42.4608 18.6133 123.312V124.476C6.39833 131.456 0 128.547 0 120.404C0 28.5008 109.353 -11.6342 154.723 2.90747Z" fill="#D1D1D1"/>
<path d="M126.803 44.7891C63.9828 62.2391 58.7478 132.039 58.7478 132.039C45.3695 134.947 39.5528 129.131 39.5528 121.569C38.9711 95.9757 81.4328 48.2791 126.803 44.7891ZM126.803 93.6491C68.6361 134.947 90.1578 149.489 90.1578 149.489C66.8911 159.959 66.8911 132.621 72.1261 127.967C86.6678 114.589 116.914 93.0674 126.803 93.6491Z" fill="#D1D1D1"/>
<path d="M16.8711 125.057C26.1778 118.077 33.7394 109.352 41.3011 100.627C48.8628 91.902 56.4244 83.177 64.5678 74.452C72.7111 66.3086 82.0178 58.1653 92.4878 52.3486C102.958 46.532 115.173 43.6236 126.806 44.787C115.173 45.9503 104.121 50.022 94.8144 56.4203C85.5078 62.8186 76.7828 70.3803 68.6394 78.5236C60.4961 86.667 52.9344 95.392 44.2094 103.535C36.0661 112.26 27.3411 119.822 16.8711 125.057" fill="#8D9998"/>
</svg>
